<?xml version="1.0" standalone="no"?>
<!DOCTYPE svg PUBLIC "-//W3C//DTD SVG 20010904//EN"
 "http://www.w3.org/TR/2001/REC-SVG-20010904/DTD/svg10.dtd">
<svg version="1.0" xmlns="http://www.w3.org/2000/svg"
 width="512.000000pt" height="512.000000pt" viewBox="0 0 512.000000 512.000000"
 preserveAspectRatio="xMidYMid meet">
<metadata>
Created by potrace 1.14, written by Peter Selinger 2001-2017
</metadata>
<g transform="translate(0.000000,512.000000) scale(0.100000,-0.100000)"
fill="#000000" stroke="none">
<path d="M2298 4950 c-467 -54 -861 -208 -1227 -483 -205 -154 -452 -429 -597
-667 -312 -512 -419 -1146 -294 -1745 82 -397 271 -776 537 -1081 29 -34 53
-64 53 -67 0 -7 -101 -147 -275 -382 -134 -181 -129 -174 -108 -169 10 2 171
26 358 54 953 140 1232 182 1251 188 20 7 18 21 -101 820 -67 447 -124 815
-127 818 -3 3 -106 -130 -228 -295 -122 -166 -226 -301 -230 -301 -12 0 -101
142 -148 235 -205 409 -210 919 -12 1330 210 438 592 739 1071 847 91 20 130
23 314 23 222 0 284 -9 449 -59 l76 -24 0 22 c-1 64 -78 529 -89 536 -7 4 -44
13 -82 19 -398 66 -909 -7 -1294 -183 -140 -64 -88 -28 80 55 309 154 619 220
965 205 85 -3 202 -15 260 -25 l105 -19 312 46 c171 25 310 49 307 53 -6 10
-221 100 -314 132 -108 37 -257 74 -395 98 -136 23 -485 34 -617 19z"/>
<path d="M4335 4695 c-154 -24 -496 -75 -759 -114 -264 -39 -481 -72 -481 -74
-3 -3 243 -1638 247 -1642 1 -1 99 127 216 286 118 159 217 289 221 289 8 0
101 -149 134 -215 171 -345 198 -795 72 -1165 -129 -378 -423 -714 -771 -880
-336 -161 -710 -200 -1056 -111 -59 15 -108 25 -108 22 0 -3 16 -118 36 -256
24 -162 42 -254 51 -261 43 -35 500 -53 668 -25 166 27 459 94 559 128 80 27
88 28 61 10 -38 -26 -191 -86 -306 -121 -297 -90 -611 -113 -900 -66 -70 11
-93 9 -424 -40 -193 -29 -351 -53 -353 -55 -5 -5 207 -91 314 -128 289 -100
615 -145 916 -127 771 47 1462 451 1888 1105 327 504 450 1131 339 1740 -74
403 -267 811 -532 1118 -46 54 -49 61 -37 80 7 12 96 133 197 270 101 137 183
250 181 252 -15 12 -51 25 -70 24 -13 -1 -149 -21 -303 -44z"/>
</g>
</svg>
