<svg xmlns="http://www.w3.org/2000/svg" viewBox="0 0 512 512" style="height: 512px; width: 512px;"><defs><linearGradient x1="0" x2="1" y1="0" y2="1" id="lorc-cycle-gradient-1"><stop offset="0%" stop-color="#9b5de5" stop-opacity="1"></stop><stop offset="100%" stop-color="#f75c0e" stop-opacity="1"></stop></linearGradient></defs><circle cx="256" cy="256" r="256" fill="#eac435" fill-opacity="1"></circle><g class="" transform="translate(0,0)" style=""><g><path d="M252.314 19.957C180.278 20.32 109.324 53.491 63.134 115.927C-6.696 210.317 4.009 339.247 82.984 420.92L45.746 471.252L196.966 448.639L174.35 297.42L131.213 355.728C87.133 301.346 83.49 222.082 127.053 163.198C157.729 121.732 204.916 99.694 252.811 99.445C269.155 99.36 285.577 101.827 301.456 106.912L294.493 60.362C270.635 55.502 246.585 55.336 223.476 59.365C164.244 66.687 109.482 99.283 75.319 150.58C110.969 84.69 179.093 44.662 251.362 42.836C253.035 42.794 254.709 42.773 256.385 42.771C271.185 42.761 286.133 44.367 300.982 47.676L349.59 40.408C318.45 26.502 285.27 19.788 252.316 19.955Z" class="selected" fill="#9b5de5" fill-opacity="1" stroke="#000000" stroke-opacity="1" stroke-width="8"></path><path d="M465.244 42.012L314.027 64.622L336.641 215.842L377.767 160.254C419.971 214.544 422.859 292.302 379.954 350.297C339.734 404.664 271.134 425.617 209.764 407.863L216.286 451.461C245.012 456.994 274.522 455.875 302.489 448.391C339.937 442.434 375.829 426.341 405.649 400.663C356.453 455.313 283.034 478.177 213.905 465.003L158.105 473.347C257.135 517.047 376.507 488.117 443.615 397.409C512.745 303.964 502.955 176.666 426.132 94.879L465.246 42.013Z" class="" fill="#f75c03" fill-opacity="1" stroke="#000000" stroke-opacity="1" stroke-width="8"></path></g></g></svg>